<svg xmlns="http://www.w3.org/2000/svg" xmlns:xlink="http://www.w3.org/1999/xlink" viewBox="2784 2391 78 78">
  <defs>
    <style>
      .cls-1 {
        fill: #fff;
      }

      .cls-2 {
        filter: url(#Path_237);
      }
    </style>
    <filter id="Path_237" x="2784" y="2391" width="78" height="78" filterUnits="userSpaceOnUse">
      <feOffset dy="3" input="SourceAlpha"/>
      <feGaussianBlur stdDeviation="3" result="blur"/>
      <feFlood flood-opacity="0.49"/>
      <feComposite operator="in" in2="blur"/>
      <feComposite in="SourceGraphic"/>
    </filter>
  </defs>
  <g id="play-button" transform="translate(2793 2397)">
    <path id="Path_236" data-name="Path 236" class="cls-1" d="M45.563,29.174l-22-15A1,1,0,0,0,22,15V45a1,1,0,0,0,1.563.826l22-15a1,1,0,0,0,0-1.652ZM24,43.107V16.893L43.225,30Z"/>
    <g class="cls-2" transform="matrix(1, 0, 0, 1, -2793, -2397)">
      <path id="Path_237-2" data-name="Path 237" class="cls-1" d="M30,0A30,30,0,1,0,60,30,30.034,30.034,0,0,0,30,0Zm0,58A28,28,0,1,1,58,30,28.032,28.032,0,0,1,30,58Z" transform="translate(2793 2397)"/>
    </g>
  </g>
</svg>
